HIERARCHY
ROOT Hips
{
  OFFSET 57.8838 95.319 338.509
  CHANNELS 6 Xposition Yposition Zposition Zrotation Xrotation Yrotation
  JOINT LeftUpLeg
  {
    OFFSET 8.64259 1.95398 -2.38835
    CHANNELS 3 Zrotation Xrotation Yrotation
    JOINT LeftLeg
    {
      OFFSET 43.7702 0 0
      CHANNELS 3 Zrotation Xrotation Yrotation
      JOINT LeftFoot
      {
        OFFSET 40.6238 0 0
        CHANNELS 3 Zrotation Xrotation Yrotation
        JOINT LeftToeBase
        {
          OFFSET 12.7242 0 0
          CHANNELS 3 Zrotation Xrotation Yrotation
          End Site
          {
            OFFSET 0 0 0
          }
        }
      }
    }
  }
  JOINT RightUpLeg
  {
    OFFSET -8.2249 1.95398 -2.59336
    CHANNELS 3 Zrotation Xrotation Yrotation
    JOINT RightLeg
    {
      OFFSET 43.5653 0 0
      CHANNELS 3 Zrotation Xrotation Yrotation
      JOINT RightFoot
      {
        OFFSET 40.6238 0 0
        CHANNELS 3 Zrotation Xrotation Yrotation
        JOINT RightToeBase
        {
          OFFSET 12.7242 0 0
          CHANNELS 3 Zrotation Xrotation Yrotation
          End Site
          {
            OFFSET 0 0 0
          }
        }
      }
    }
  }
  JOINT Spine
  {
    OFFSET 0.165834 0.87714 6.61349
    CHANNELS 3 Zrotation Xrotation Yrotation
    JOINT Spine1
    {
      OFFSET 7.38963 1.71661e-005 0
      CHANNELS 3 Zrotation Xrotation Yrotation
      JOINT Spine2
      {
        OFFSET 11.9445 1.14441e-005 0
        CHANNELS 3 Zrotation Xrotation Yrotation
        JOINT Spine3
        {
          OFFSET 14.7254 4.19617e-005 0
          CHANNELS 3 Zrotation Xrotation Yrotation
          JOINT Spine4
          {
            OFFSET 10.9679 0 0
            CHANNELS 3 Zrotation Xrotation Yrotation
            JOINT RightShoulder
            {
              OFFSET 2.46616 -1.6653 3.69651
              CHANNELS 3 Zrotation Xrotation Yrotation
              JOINT RightArm
              {
                OFFSET 13.0012 0 0
                CHANNELS 3 Zrotation Xrotation Yrotation
                JOINT RightForeArm
                {
                  OFFSET 28.7848 1.62311e-005 0
                  CHANNELS 3 Zrotation Xrotation Yrotation
                  JOINT RightHand
                  {
                    OFFSET 26.5688 1.62095e-005 0
                    CHANNELS 3 Zrotation Xrotation Yrotation
                    End Site
                    {
                      OFFSET 0 0 0
                    }
                  }
                }
              }
            }
            JOINT LeftShoulder
            {
              OFFSET 2.38034 -1.29275 -3.7523
              CHANNELS 3 Zrotation Xrotation Yrotation
              JOINT LeftArm
              {
                OFFSET 16.3182 6.07031e-005 0
                CHANNELS 3 Zrotation Xrotation Yrotation
                JOINT LeftForeArm
                {
                  OFFSET 27.0901 0 0
                  CHANNELS 3 Zrotation Xrotation Yrotation
                  JOINT LeftHand
                  {
                    OFFSET 24.5451 1.51738e-005 0
                    CHANNELS 3 Zrotation Xrotation Yrotation
                    End Site
                    {
                      OFFSET 0 0 0
                    }
                  }
                }
              }
            }
            JOINT Neck
            {
              OFFSET 5.0226 -0.0266342 0
              CHANNELS 3 Zrotation Xrotation Yrotation
              JOINT Head
              {
                OFFSET 6.69364 2.86102e-005 0
                CHANNELS 3 Zrotation Xrotation Yrotation
                End Site
                {
                  OFFSET 0 0 0
                }
              }
            }
          }
        }
      }
    }
  }
}
MOTION
Frames:	18
Frame Time:	0.0416667
-286.875 91.9216 291.528 88.6816 37.9886 88.6317 -174.1 -10.0242 87.1548 0.616992 9.86097 -4.1607 65.7039 2.34355 10.9998 31.8614 1.27208 -0.76433 172.79 -2.1075 90.656 -15.919 -6.25186 -1.63877 75.675 -4.08472 11.8951 25.8044 3.51825 4.23496 1.25488 5.42951 -89.2224 16.0046 2.87056 1.10296 4.33646 2.91632 0.97545 -18.2141 2.40636 1.91499 1.79856 2.40635 1.91498 127.115 -45.0107 -41.6866 42.5782 -26.0245 4.12552 -7.39301 -23.9956 -26.1194 -13.9548 -1.07289 3.8344 -62.5925 -37.8198 123.607 -46.3595 -28.4998 -11.3126 -172.464 45.8492 179.983 36.1812 12.5574 30.1713 31.1289 -22.8425 -8.43012 -53.6072 -23.4451 9.60743 
-287.016 91.9665 291.668 88.6412 38.1436 88.4277 -174.21 -9.8641 86.9601 0.653826 9.93973 -4.22922 65.4835 2.30775 11.0872 32.015 1.33611 -0.877697 172.802 -1.93622 90.5803 -15.8709 -6.72258 -1.63884 75.2923 -4.29994 10.957 25.9578 3.34703 4.0485 1.21674 5.45283 -89.1643 15.9558 2.82452 1.22919 4.28746 2.87588 1.10361 -18.261 2.32455 2.02148 1.75164 2.32454 2.02148 127.226 -45.3277 -41.6688 42.5227 -25.8881 3.66693 -7.14783 -24.0712 -25.6162 -14.0466 -0.972121 2.92383 -62.6506 -37.4639 123.626 -46.7079 -28.438 -11.5605 -172.473 45.5716 179.983 36.2628 12.9836 31.2085 31.9023 -23.11 -8.76599 -54.1151 -23.6991 9.93985 
-287.418 92.098 292.008 88.5119 38.5913 87.7909 -174.907 -9.34171 86.1128 0.548658 9.72679 -4.08727 64.934 1.89772 10.7466 32.4512 1.5014 -0.544528 172.599 -0.96361 89.9089 -16.7507 -5.95537 -1.71032 75.671 -4.05336 11.6142 25.6843 3.68746 4.03888 1.11457 5.47742 -89.0728 15.9039 2.66888 1.44054 4.23499 2.72972 1.3216 -18.3088 2.11265 2.17613 1.70383 2.11264 2.17612 126.972 -45.9541 -42.3526 42.1317 -26.0985 3.39147 -7.02237 -23.7269 -25.6632 -14.3191 -1.09879 3.80324 -62.7723 -37.4292 123.43 -46.8628 -28.41 -11.7565 -172.441 44.6776 179.983 37.1175 14.1839 33.4778 32.7837 -22.8303 -8.04221 -55.4119 -23.3941 9.10403 
-288.025 92.2987 292.538 88.3138 39.3773 86.9863 -175.627 -8.66454 85.1687 0.677987 10.1301 -4.15311 64.2176 2.29019 11.2343 32.2102 1.41336 -0.868292 172.321 0.268555 89.1586 -17.753 -5.31525 -1.68531 75.7245 -3.8682 11.5813 25.5624 3.79906 4.40841 0.952264 5.51813 -88.9702 15.8195 2.39964 1.69282 4.14982 2.47178 1.58554 -18.3874 1.78007 2.33566 1.62522 1.78007 2.33566 126.561 -46.8371 -43.3853 41.3959 -26.1355 2.90635 -6.94536 -23.3908 -25.4815 -14.1559 -0.965455 2.80094 -62.8377 -37.8792 123.169 -46.5821 -28.1153 -12.0848 -172.728 43.8847 179.984 37.4604 15.4134 36.2063 34.5091 -22.1991 -6.53881 -57.6588 -22.7955 7.66479 
-288.803 92.479 293.243 88.1913 40.4668 85.813 -176.537 -7.78288 83.948 0.717265 10.5329 -4.21377 63.2065 2.21346 11.2072 32.9143 1.68484 -0.501705 172.108 1.8415 88.3489 -18.7713 -6.80305 -1.49823 73.9643 -4.78966 7.66454 27.381 1.53532 4.76811 0.739383 5.58414 -88.8231 15.6842 2.05255 2.04768 4.01344 2.14069 1.95536 -18.5153 1.34248 2.56965 1.49737 1.34249 2.56965 126.029 -48.1752 -44.7805 40.4148 -26.3472 2.49093 -6.83555 -22.4119 -25.6604 -14.2402 -1.00637 3.08953 -63.1064 -38.1041 122.638 -46.7951 -28.0433 -12.6178 -172.693 43.7046 179.984 38.1865 16.4422 37.9592 36.3678 -21.805 -5.63608 -59.3601 -22.5572 7.15574 
-289.606 92.7555 294.071 88.0252 41.9399 84.5779 -177.653 -6.7663 82.583 0.924749 11.729 -4.26838 61.4771 2.68051 12.5064 34.5292 2.33098 -0.304532 172.389 3.56849 87.8097 -20.3086 -5.38218 -2.028 73.5686 -5.62532 6.96764 28.0657 0.803474 2.68591 0.473482 5.65634 -88.6679 15.5384 1.60401 2.43321 3.86628 1.70951 2.3603 -18.6532 0.798888 2.80251 1.35943 0.798899 2.80251 125.321 -49.486 -46.3906 39.7008 -26.2424 1.92342 -7.0448 -21.8893 -26.2534 -13.7662 -1.2121 5.17642 -63.5858 -38.3752 121.738 -46.3155 -27.6988 -12.7138 -173.177 45.9102 179.983 39.1851 16.9101 38.0597 38.3198 -21.1947 -4.69259 -61.1958 -22.1104 6.56904 
-290.302 92.9219 294.81 88.0703 43.7778 83.1148 -179.159 -4.9616 80.8603 -0.884089 12.041 -3.74705 60.8203 3.25765 12.8517 36.982 3.33097 0.426492 171.748 5.38619 86.6754 -22.5236 -3.31844 -1.96147 74.5101 -5.84544 8.19468 28.6055 0.164713 1.60337 0.161503 5.76618 -88.4983 15.3194 1.07 2.85957 3.64584 1.19476 2.80976 -18.8644 0.161535 3.04876 1.1483 0.16156 3.04877 124.645 -51.7361 -48.2789 37.9446 -25.0021 1.06732 -6.62582 -21.1877 -25.8967 -13.6091 -1.17006 4.91851 -64.2581 -38.9821 120.416 -45.7315 -27.2845 -13.1547 -173.165 48.5984 179.982 38.6377 15.316 34.7999 40.6156 -20.8794 -4.72623 -62.051 -22.3501 7.80468 
-290.748 92.8889 295.367 88.1324 46.063 81.8215 179.568 -3.44587 79.5278 -2.57077 13.062 -3.2019 60.7113 3.32456 12.5504 38.2876 3.90945 1.67713 170.834 6.54743 85.3779 -23.5781 -3.63318 -1.33531 73.8804 -6.25912 6.25991 29.4925 -0.981752 1.55538 -0.199564 5.86155 -88.3957 15.1342 0.404795 3.16688 3.45951 0.54373 3.14601 -19.0452 -0.565208 3.14225 0.967448 -0.565186 3.14224 123.628 -53.4464 -50.3846 36.2797 -24.4883 0.522673 -6.57834 -20.0497 -26.5242 -13.07 -1.30371 6.56967 -65.1767 -39.7755 118.645 -46.0573 -27.0982 -14.4371 -171.417 48.5248 179.982 38.4786 11.5246 25.562 42.4426 -19.7591 -4.40491 -63.1902 -21.7162 8.36586 
-290.86 92.8248 295.635 88.4511 48.6141 80.1579 177.816 -2.12503 77.7967 -4.43637 12.3025 -2.21171 60.8222 3.74578 11.4016 38.6134 4.01612 0.972364 169.684 7.53363 83.7862 -25.0971 -2.26486 -0.850089 74.6201 -6.24334 7.02779 29.2525 -0.689145 2.19773 -0.58165 5.97524 -88.3127 14.9158 -0.313192 3.43877 3.24035 -0.16162 3.4492 -19.2626 -1.33168 3.18615 0.750032 -1.33169 3.18615 122.213 -55.5663 -53.1191 33.7133 -22.1396 -0.144866 -5.60855 -19.0636 -25.5094 -12.9802 -1.11306 4.91105 -66.4929 -40.3967 116.279 -47.1111 -26.3041 -15.9962 -171.36 73.9796 179.957 18.9445 -0.820431 -7.71164 43.7194 -18.0909 -4.30321 -64.0281 -20.5039 8.98055 
-290.697 92.4003 295.606 89.7359 51.0591 77.9938 175.398 -0.655216 75.6961 -7.56831 11.3381 -0.670984 59.195 5.20059 12.4543 41.7297 5.34385 1.29398 167.914 8.26092 81.9304 -27.6698 -2.35681 0.280117 75.6462 -6.6074 6.65877 29.6058 -1.16302 3.52228 -0.9356 6.20012 -88.2912 14.4776 -1.01076 3.57431 2.80197 -0.852571 3.61525 -19.7048 -2.03778 3.10605 0.307814 -2.03777 3.10605 120.396 -58.4008 -56.5107 30.3583 -20.1797 -0.682536 -4.67751 -17.7067 -25.0505 -13.0909 -1.08678 4.57424 -67.9152 -41.4808 113.666 -47.142 -23.8588 -17.5014 -173.323 85.7368 179.87 9.70714 -1.25833 -16.1822 44.4848 -15.8834 -4.51604 -63.8134 -18.8072 10.087 
-290.383 91.4511 295.684 90.2449 53.1048 77.5273 171.73 0.0136631 75.4441 -6.14186 8.5551 0.257089 51.2864 6.18086 11.7644 48.9652 9.14793 6.43245 167.287 9.90149 81.9615 -32.0706 -0.141509 0.738811 78.297 -7.44791 7.69796 29.9327 -1.57305 3.59593 -1.16176 6.40334 -88.4301 14.0804 -1.53397 3.35791 2.40585 -1.38481 3.42208 -20.1115 -2.4719 2.74233 -0.0988235 -2.47192 2.74232 117.912 -61.2812 -60.6285 26.8064 -18.7186 -0.954613 -4.02707 -16.9158 -24.5023 -12.429 -1.06302 4.90344 -69.2299 -44.0177 111.049 -43.2024 -19.6578 -16.9529 0.827178 88.3719 0.589657 8.30703 -1.04112 -15.6447 44.1068 -12.7558 -4.33104 -63.014 -15.8892 10.218 
-289.542 90.5041 295.445 89.2019 54.599 78.9588 173.364 14.8678 74.9573 -33.6655 5.3037 1.59348 53.7774 3.44328 6.76766 50.4718 10.3078 9.18517 167.164 11.1122 82.8359 -34.9595 1.82457 1.19637 80.439 -6.82574 8.33052 30.1684 -1.8758 5.15252 -1.21889 6.54807 -88.6544 13.7942 -1.76138 2.9306 2.12103 -1.63073 3.00521 -20.4063 -2.56052 2.26616 -0.393618 -2.5605 2.26615 112.959 -63.7483 -67.6918 23.8975 -16.9857 -0.169302 -2.88879 -15.4527 -23.5735 -12.1684 -1.13912 5.86916 -70.1423 -47.4874 109.078 -38.086 -16.4555 -15.5344 -1.33831 82.5248 -1.63689 9.91457 -1.36663 -16.1845 42.3942 -9.02285 -4.5637 -60.8209 -11.8801 10.0041 
-288.144 90.0454 294.368 88.0806 54.7678 80.4303 176.28 24.6923 74.2681 -45.7649 6.32505 1.00031 54.3596 2.44979 7.60262 49.4083 9.74229 9.00108 167.042 10.2284 83.4832 -34.9183 2.48074 1.48599 81.9648 -6.80323 9.11902 30.0961 -1.78435 4.56614 -1.07045 6.63827 -88.9093 13.6098 -1.59354 2.39254 1.93753 -1.48672 2.46031 -20.5943 -2.23881 1.80319 -0.581634 -2.23879 1.8032 108.07 -64.8789 -74.2363 21.4068 -16.7477 -0.0367601 -1.47124 -14.9503 -21.0326 -11.9285 -1.13692 6.07652 -70.6269 -51.8793 107.785 -32.4597 -15.8013 -13.1184 20.0985 80.604 -26.1026 11.6013 -1.21797 -12.2933 39.7443 -4.70738 -3.87725 -57.8156 -7.49512 9.32108 
-286.255 90.1401 292.836 86.6831 53.9827 81.9839 176.21 28.051 74.5388 -34.7122 5.06648 -0.498099 54.2642 1.42941 6.32345 47.7345 8.88802 8.85563 167.399 8.00804 84.5404 -31.9651 3.01925 1.11536 80.955 -7.81629 9.1617 31.8734 -4.01794 2.84363 -0.850173 6.78074 -89.1074 13.3203 -1.2558 1.94543 1.64844 -1.16897 1.99879 -20.8841 -1.78235 1.47818 -0.871445 -1.78236 1.47818 101.577 -65.9017 -82.7121 18.6956 -14.8209 -1.60749 0.170493 -14.022 -18.2506 -11.5136 -1.15661 6.75503 -71.8055 -55.9971 105.655 -28.137 -19.1893 -12.4146 170.564 79.4246 -171.714 29.0795 -3.48792 -17.3241 37.0464 -0.922828 -3.70181 -53.301 -3.58228 9.3727 
-283.79 90.3309 290.689 86.8757 52.2069 83.4506 172.118 25.7817 78.2662 -11.8684 4.25914 -0.326041 52.2953 -1.92929 3.65326 42.1112 6.21813 10.8715 167.83 3.26564 86.4642 -26.9097 2.76333 0.74521 77.4823 -8.8181 8.01226 33.7539 -6.41006 2.57378 -0.537796 6.96914 -89.401 12.9385 -0.780326 1.29256 1.26715 -0.722685 1.32564 -21.2665 -1.13271 0.998307 -1.25383 -1.1327 0.998312 95.7373 -66.4673 -90.2006 15.8261 -14.2066 -3.25283 1.20164 -12.7281 -16.3641 -11.093 -0.926529 4.69027 -73.552 -60.2997 102.922 -24.5314 -25.5874 -12.4291 -0.618672 77.0725 0.221719 7.85351 -1.05661 -15.4692 31.5938 1.54841 -3.63229 -43.8338 -0.821302 10.1776 
-280.428 89.9782 287.486 88.1347 49.1462 85.6059 171.108 27.1555 82.0635 -6.5551 5.67501 1.41979 56.8547 -4.83112 1.65858 33.1261 1.58244 10.2684 168.486 -2.25938 88.5042 -24.2452 2.3613 0.410708 75.5442 -8.31309 10.2731 36.8325 -10.3202 2.42791 -0.158964 7.16963 -89.8085 12.5349 -0.224519 0.408628 0.863877 -0.20631 0.41811 -21.6711 -0.336938 0.322266 -1.65844 -0.336943 0.322257 91.4372 -66.4941 -95.7004 13.1417 -13.4736 -5.29664 1.56072 -11.6633 -15.9833 -10.9599 -0.761211 3.00534 -75.6959 -65.0263 99.901 -20.8546 -33.1654 -12.3085 5.25708 78.936 0.00290069 5.58398 -0.554098 -15.1571 22.1678 3.32373 -1.52682 -29.8288 1.55506 8.88885 
-276.083 89.3616 283.017 88.903 45.8717 88.6837 173.978 26.0659 85.5127 -8.18397 5.47909 0.581325 55.3325 -5.04579 2.27988 33.5608 1.79384 10.7537 169.846 -6.03937 90.7714 -25.8347 -0.922307 -0.199235 72.8294 -5.10855 12.8474 38.7212 -12.8198 1.80357 0.147261 7.40843 -90.1903 12.0564 0.202928 -0.401468 0.385354 0.185098 -0.410023 -22.1495 0.31421 -0.321927 -2.13689 0.314231 -0.32192 88.1318 -65.4781 -100.115 11.8527 -12.4552 -7.96207 1.16651 -11.3438 -16.7273 -10.7883 -0.622819 1.5983 -78.5014 -68.8617 96.3393 -15.5285 -36.3296 -8.72898 6.56213 79.0645 0.0536464 3.23378 -0.195722 -13.2964 15.4621 3.97357 3.50729 -17.9829 2.291 4.4414 
-270.915 89.6772 277.106 90.7062 44.7737 87.733 176.428 24.6929 84.7694 -16.6039 9.98253 -0.485168 54.1763 -5.71958 7.28697 30.9759 0.616921 7.35503 169.334 -7.86514 87.89 -30.7379 -1.85003 -1.16017 64.6931 4.99891 21.68 37.4105 -11.6541 -0.974673 0.0784126 7.71952 -90.1803 11.4349 0.071811 -0.366094 -0.236111 0.0556307 -0.368913 -22.7709 0.178528 -0.327588 -2.75827 0.178518 -0.327595 87.2885 -60.648 -102.27 15.7619 -11.7357 -8.20439 -0.384392 -11.1169 -19.656 -10.802 -0.660666 2.01766 -79.9041 -70.8642 94.666 -15.7047 -39.5023 -10.1894 9.92837 81.5109 0.102754 0.241842 0.0767156 -14.0601 12.7948 4.76131 10.7906 -12.0171 2.0718 -1.40325 
